Normalized EMG Linear Envelopes
nRows=204
nColumns=4

endheader
time	 med_gas_r	  soleus_r	 tib_ant_r	
3.12702	  0.001769	  0.004894	  0.000939	
3.16028	  0.001887	  0.005329	  0.000902	
3.19355	  0.001993	  0.005710	  0.000874	
3.22681	  0.002080	  0.006020	  0.000860	
3.26008	  0.002142	  0.006259	  0.000863	
3.29335	  0.002180	  0.006427	  0.000880	
3.32661	  0.002195	  0.006513	  0.000905	
3.35988	  0.002190	  0.006512	  0.000932	
3.39315	  0.002174	  0.006435	  0.000957	
3.42641	  0.002157	  0.006304	  0.000976	
3.45968	  0.002151	  0.006141	  0.000989	
3.49294	  0.002157	  0.005973	  0.000995	
3.52621	  0.002166	  0.005836	  0.000995	
3.55948	  0.002168	  0.005765	  0.000991	
3.59274	  0.002155	  0.005773	  0.000983	
3.62601	  0.002134	  0.005842	  0.000975	
3.65927	  0.002123	  0.005940	  0.000970	
3.69254	  0.002133	  0.006050	  0.000969	
3.72581	  0.002168	  0.006168	  0.000968	
3.75907	  0.002213	  0.006288	  0.000964	
3.79234	  0.002245	  0.006394	  0.000956	
3.8256	  0.002245	  0.006465	  0.000946	
3.85887	  0.002209	  0.006492	  0.000937	
3.89214	  0.002142	  0.006475	  0.000934	
3.9254	  0.002062	  0.006423	  0.000939	
3.95867	  0.001985	  0.006348	  0.000953	
3.99194	  0.001924	  0.006264	  0.000972	
4.0252	  0.001885	  0.006174	  0.000985	
4.05847	  0.001868	  0.006070	  0.000978	
4.09173	  0.001864	  0.005941	  0.000931	
4.125	  0.001865	  0.005782	  0.000835	
4.15827	  0.001861	  0.005592	  0.000707	
4.19153	  0.001848	  0.005369	  0.000592	
4.2248	  0.001829	  0.005125	  0.000572	
4.25806	  0.001811	  0.004919	  0.000758	
4.29133	  0.001805	  0.004860	  0.001294	
4.3246	  0.001819	  0.005076	  0.002339	
4.35786	  0.001857	  0.005627	  0.004021	
4.39113	  0.001917	  0.006457	  0.006381	
4.4244	  0.001998	  0.007417	  0.009372	
4.45766	  0.002098	  0.008364	  0.012952	
4.49093	  0.002225	  0.009258	  0.017193	
4.52419	  0.002386	  0.010179	  0.022304	
4.55746	  0.002583	  0.011231	  0.028481	
4.59073	  0.002808	  0.012440	  0.035710	
4.62399	  0.003057	  0.013741	  0.043691	
4.65726	  0.003330	  0.015063	  0.051950	
4.69052	  0.003642	  0.016409	  0.060030	
4.72379	  0.003998	  0.017849	  0.067596	
4.75706	  0.004388	  0.019454	  0.074414	
4.79032	  0.004785	  0.021234	  0.080312	
4.82359	  0.005153	  0.023147	  0.085180	
4.85685	  0.005467	  0.025131	  0.089024	
4.89012	  0.005722	  0.027118	  0.092025	
4.92339	  0.005926	  0.029026	  0.094578	
4.95665	  0.006103	  0.030749	  0.097231	
4.98992	  0.006277	  0.032171	  0.100489	
5.02319	  0.006465	  0.033183	  0.104537	
5.05645	  0.006667	  0.033713	  0.109103	
5.08972	  0.006860	  0.033754	  0.113617	
5.12298	  0.007012	  0.033403	  0.117602	
5.15625	  0.007095	  0.032878	  0.121034	
5.18952	  0.007114	  0.032485	  0.124423	
5.22278	  0.007118	  0.032528	  0.128572	
5.25605	  0.007176	  0.033199	  0.134174	
5.28931	  0.007343	  0.034496	  0.141479	
5.32258	  0.007627	  0.036228	  0.150149	
5.35585	  0.007987	  0.038123	  0.159360	
5.38911	  0.008372	  0.039987	  0.168135	
5.42238	  0.008757	  0.041842	  0.175784	
5.45565	  0.009173	  0.043955	  0.182222	
5.48891	  0.009686	  0.046750	  0.188018	
5.52218	  0.010374	  0.050636	  0.194188	
5.55544	  0.011292	  0.055864	  0.201927	
5.58871	  0.012456	  0.062410	  0.212335	
5.62198	  0.013824	  0.069873	  0.226057	
5.65524	  0.015280	  0.077408	  0.242814	
5.68851	  0.016633	  0.083850	  0.261092	
5.72177	  0.017672	  0.088121	  0.278469	
5.75504	  0.018271	  0.089770	  0.292692	
5.78831	  0.018464	  0.089273	  0.302872	
5.82157	  0.018443	  0.087823	  0.309868	
5.85484	  0.018444	  0.086706	  0.315500	
5.8881	  0.018619	  0.086690	  0.321220	
5.92137	  0.018970	  0.087809	  0.327196	
5.95464	  0.019380	  0.089592	  0.332367	
5.9879	  0.019713	  0.091517	  0.335280	
6.02117	  0.019902	  0.093353	  0.335202	
6.05444	  0.019983	  0.095211	  0.332935	
6.0877	  0.020076	  0.097361	  0.330890	
6.12097	  0.020331	  0.100039	  0.332209	
6.15423	  0.020881	  0.103389	  0.339349	
6.1875	  0.021798	  0.107494	  0.352966	
6.22077	  0.023048	  0.112317	  0.371841	
6.25403	  0.024483	  0.117522	  0.393782	
6.2873	  0.025867	  0.122382	  0.416832	
6.32056	  0.026972	  0.126006	  0.440002	
6.35383	  0.027678	  0.127785	  0.463153	
6.3871	  0.028024	  0.127742	  0.486161	
6.42036	  0.028178	  0.126512	  0.508057	
6.45363	  0.028369	  0.125051	  0.527109	
6.4869	  0.028805	  0.124307	  0.542152	
6.52016	  0.029631	  0.124997	  0.554178	
6.55343	  0.030894	  0.127478	  0.566586	
6.58669	  0.032531	  0.131674	  0.583417	
6.61996	  0.034381	  0.137077	  0.606772	
6.65323	  0.036205	  0.142838	  0.635505	
6.68649	  0.037733	  0.147961	  0.666221	
6.71976	  0.038731	  0.151567	  0.695549	
6.75302	  0.039077	  0.153126	  0.721587	
6.78629	  0.038793	  0.152575	  0.743299	
6.81956	  0.038012	  0.150261	  0.758696	
6.85282	  0.036900	  0.146815	  0.763905	
6.88609	  0.035619	  0.143044	  0.754686	
6.91935	  0.034351	  0.139844	  0.729753	
6.95262	  0.033312	  0.138004	  0.693102	
6.98589	  0.032701	  0.137870	  0.652840	
7.01915	  0.032583	  0.139030	  0.616913	
7.05242	  0.032816	  0.140325	  0.589176	
7.08569	  0.033113	  0.140365	  0.568939	
7.11895	  0.033226	  0.138350	  0.553840	
7.15222	  0.033098	  0.134692	  0.542979	
7.18548	  0.032893	  0.130921	  0.537684	
7.21875	  0.032880	  0.128920	  0.540056	
7.25202	  0.033283	  0.130006	  0.551252	
7.28528	  0.034183	  0.134426	  0.570946	
7.31855	  0.035502	  0.141392	  0.597693	
7.35181	  0.037026	  0.149459	  0.629238	
7.38508	  0.038471	  0.156945	  0.662344	
7.41835	  0.039542	  0.162271	  0.692746	
7.45161	  0.040016	  0.164265	  0.715994	
7.48488	  0.039810	  0.162495	  0.729195	
7.51815	  0.039018	  0.157521	  0.732583	
7.55141	  0.037893	  0.150828	  0.729633	
7.58468	  0.036765	  0.144308	  0.725423	
7.61794	  0.035940	  0.139546	  0.724225	
7.65121	  0.035625	  0.137358	  0.727848	
7.68448	  0.035935	  0.137816	  0.735577	
7.71774	  0.036911	  0.140558	  0.745334	
7.75101	  0.038507	  0.145023	  0.754993	
7.78427	  0.040560	  0.150502	  0.763129	
7.81754	  0.042805	  0.156171	  0.769228	
7.85081	  0.044972	  0.161245	  0.773627	
7.88407	  0.046883	  0.165149	  0.777037	
7.91734	  0.048451	  0.167525	  0.779491	
7.9506	  0.049559	  0.168072	  0.779299	
7.98387	  0.049968	  0.166469	  0.773238	
8.01714	  0.049368	  0.162548	  0.758435	
8.0504	  0.047596	  0.156628	  0.734714	
8.08367	  0.044809	  0.149657	  0.705330	
8.11694	  0.041487	  0.142972	  0.675250	
8.1502	  0.038238	  0.137796	  0.648314	
8.18347	  0.035563	  0.134799	  0.625621	
8.21673	  0.033714	  0.133987	  0.606272	
8.25	  0.032703	  0.134945	  0.589401	
8.28327	  0.032405	  0.137217	  0.575494	
8.31653	  0.032652	  0.140550	  0.566128	
8.3498	  0.033262	  0.144803	  0.562953	
8.38306	  0.034034	  0.149653	  0.567009	
8.41633	  0.034788	  0.154480	  0.578440	
8.4496	  0.035452	  0.158656	  0.595947	
8.48286	  0.036117	  0.162005	  0.616003	
8.51613	  0.036954	  0.164890	  0.632801	
8.5494	  0.038018	  0.167753	  0.639831	
8.58266	  0.039114	  0.170484	  0.632660	
8.61593	  0.039841	  0.172251	  0.611306	
8.64919	  0.039836	  0.171958	  0.580683	
8.68246	  0.039000	  0.168894	  0.548717	
8.71573	  0.037543	  0.162998	  0.522986	
8.74899	  0.035815	  0.154681	  0.507559	
8.78226	  0.034113	  0.144623	  0.501776	
8.81552	  0.032637	  0.133925	  0.501620	
8.84879	  0.031590	  0.124325	  0.502485	
8.88206	  0.031223	  0.117948	  0.501013	
8.91532	  0.031732	  0.116464	  0.494711	
8.94859	  0.033104	  0.120296	  0.480420	
8.98185	  0.035120	  0.128633	  0.453953	
9.01512	  0.037552	  0.140272	  0.411919	
9.04839	  0.040306	  0.154409	  0.354377	
9.08165	  0.043285	  0.170389	  0.286028	
9.11492	  0.046080	  0.186485	  0.214847	
9.14819	  0.047831	  0.199003	  0.149081	
9.18145	  0.047539	  0.203136	  0.094532	
9.21472	  0.044632	  0.195467	  0.053512	
9.24798	  0.039319	  0.176257	  0.025461	
9.28125	  0.032476	  0.149584	  0.008289	
9.31452	  0.025207	  0.121182	 -0.000531	
9.34778	  0.018448	  0.095720	 -0.003426	
9.38105	  0.012783	  0.075373	 -0.002571	
9.41431	  0.008448	  0.060123	  0.000184	
9.44758	  0.005418	  0.048924	  0.003433	
9.48085	  0.003499	  0.040667	  0.006304	
9.51411	  0.002424	  0.034532	  0.008425	
9.54738	  0.001931	  0.029971	  0.009757	
9.58065	  0.001806	  0.026623	  0.010389	
9.61391	  0.001896	  0.024319	  0.010420	
9.64718	  0.002097	  0.023065	  0.009948	
9.68044	  0.002340	  0.022944	  0.009112	
9.71371	  0.002575	  0.023953	  0.008105	
9.74698	  0.002763	  0.025875	  0.007120	
9.78024	  0.002873	  0.028322	  0.006285	
9.81351	  0.002887	  0.030918	  0.005640	
9.84677	  0.002814	  0.033423	  0.005170	
9.88004	  0.002681	  0.035720	  0.004847	
